# xmcd
#
# Track frame offsets:
#	150
#	10281
#	23319
#	34578
#	48349
#	58886
#	68730
#	80716
#	89646
#	99972
#	112727
#	123674
#	133656
#	145463
#	159603
#	171311
#	182035
#	196815
#	206853
#	216868
#	230469
#	243175
#	253910
#	265288
#	275836
#	289742
#	305610
#	318016
#
# Disc length: 4407 seconds
#
# Revision: 0
# Processed by: cddbd v1.5.2PL0 Copyright (c) Steve Scherf et al.
# Submitted via: EasyCDDAExtractor 15.2.5.1
#
DISCID=9e11351c
DTITLE=Various Artist - Golden Age Of Popular Music - The Country Hits
DYEAR=2008
DGENRE=Country
TTITLE0=Johnny Horton - Honky Tonk Man
TTITLE1=Bobby Helms - Fraulein
TTITLE2=Mitchell Torok - Caribbean
TTITLE3=Johnny Cash - Don't Take Your Guns To Town
TTITLE4=Stonewall Jackson - Why I'm Walkin'
TTITLE5=Hank Locklin - Geisha Girl
TTITLE6=Don Gibson - I Can't Stop Loving You
TTITLE7=Faron Young - Alone With You
TTITLE8=Jimmy Newman - A Fallen Star
TTITLE9=Ray Price - Invitation To The Blues
TTITLE10=George Jones - Tender Years
TTITLE11=Jim Reeves - Blue Boy
TTITLE12=Patti Page - Mom And Dad's Waltz
TTITLE13=Eddy Arnold - Tennessee Stud
TTITLE14=Skeeter Davis - My Last Date (With You)
TTITLE15=Floyd Cramer - San Antonio Rose
TTITLE16=Marty Robbins - Don't Worry
TTITLE17=Claude Gray - I'll Have Another Cup Of Coffee (Then I'll Go)
TTITLE18=Claude King - The Comancheros
TTITLE19=Patsy Cline - She's Got You
TTITLE20=Bobby Bare - Shame On Me
TTITLE21=Leroy Van Dyke - If A Woman Answers (Hang Up The Phone)
TTITLE22=Roy Drusky - Three Hearts In A Tangle
TTITLE23=Ferlin Husky - Wings Of A Dove
TTITLE24=Lefty Frizzell - Saginaw, Michigan
TTITLE25=Bill Anderson - Mama Sang A Song
TTITLE26=Roy Clark - The Tip Of My Fingers
TTITLE27=Hank Snow - I've Been Everywhere
EXTD=
EXTT0=
EXTT1=
EXTT2=
EXTT3=
EXTT4=
EXTT5=
EXTT6=
EXTT7=
EXTT8=
EXTT9=
EXTT10=
EXTT11=
EXTT12=
EXTT13=
EXTT14=
EXTT15=
EXTT16=
EXTT17=
EXTT18=
EXTT19=
EXTT20=
EXTT21=
EXTT22=
EXTT23=
EXTT24=
EXTT25=
EXTT26=
EXTT27=
PLAYORDER=
